<svg xmlns="http://www.w3.org/2000/svg" viewBox="0 0 512 512" role="img" aria-label="반짝바다 낚시단 아이콘">
  <defs>
    <linearGradient id="sea" x1="92" x2="420" y1="72" y2="452" gradientUnits="userSpaceOnUse">
      <stop stop-color="#7dd7ee"/>
      <stop offset="0.55" stop-color="#47b4d7"/>
      <stop offset="1" stop-color="#246aa4"/>
    </linearGradient>
    <linearGradient id="sun" x1="286" x2="390" y1="86" y2="194" gradientUnits="userSpaceOnUse">
      <stop stop-color="#fff3a8"/>
      <stop offset="1" stop-color="#f8b75b"/>
    </linearGradient>
  </defs>
  <rect width="512" height="512" rx="112" fill="url(#sea)"/>
  <circle cx="354" cy="140" r="58" fill="url(#sun)"/>
  <path d="M72 333c48-30 91-30 139 0 48 29 92 29 140 0 32-20 62-27 89-22v67c-31-4-60 3-89 21-48 30-92 30-140 0-48-29-91-29-139 0v-66Z" fill="#e5fbff" opacity=".9"/>
  <path d="M105 292c51-44 111-70 179-77 42-5 80 2 113 19-20 64-74 110-139 119-65 8-124-15-153-61Z" fill="#153a56"/>
  <path d="M143 290c44-27 92-42 143-43 27-1 52 3 75 12-25 35-61 56-105 62-42 5-81-6-113-31Z" fill="#f5d08a"/>
  <path d="M252 143c15-31 49-46 80-35-3 33-28 59-62 65-13 2-22-6-18-30Z" fill="#f7faf9"/>
  <path d="M179 203c16-24 45-36 73-30-6 30-30 52-61 55-11 1-17-8-12-25Z" fill="#f7faf9"/>
  <path d="M225 173c13 3 23 12 28 24" fill="none" stroke="#286078" stroke-width="12" stroke-linecap="round"/>
</svg>
